<svg xmlns="http://www.w3.org/2000/svg" width="88.956" height="74.978" viewBox="0 0 88.956 74.978">
  <g id="quote_icon_colored_rotated" data-name="quote icon colored rotated" transform="translate(85.745 73.987) rotate(180)">
    <g id="Group_313" data-name="Group 313" transform="translate(48.594 3.009)">
      <path id="Path_183" data-name="Path 183" d="M17.666,3.009H43.449a3.683,3.683,0,0,1,3.683,3.683V32.475a3.683,3.683,0,0,1-3.683,3.683H17.666a3.683,3.683,0,0,1-3.683-3.683V6.692A3.683,3.683,0,0,1,17.666,3.009Z" transform="translate(-13.983 -3.009)" fill="none" stroke="#7b5eed" stroke-linecap="round" stroke-linejoin="round" stroke-width="8"/>
      <path id="Path_184" data-name="Path 184" d="M47.056,11.144c-.2,19.473-13.589,34.9-33.059,36.67" transform="translate(-13.945 18.818)" fill="none" stroke="#7b5eed" stroke-linecap="round" stroke-linejoin="round" stroke-width="8"/>
    </g>
    <g id="Group_314" data-name="Group 314" transform="translate(1.084 3.009)">
      <path id="Path_185" data-name="Path 185" d="M4.767,3.009H30.549a3.683,3.683,0,0,1,3.683,3.683V32.475a3.683,3.683,0,0,1-3.683,3.683H4.767a3.683,3.683,0,0,1-3.683-3.683V6.692A3.683,3.683,0,0,1,4.767,3.009Z" transform="translate(-1.084 -3.009)" fill="none" stroke="#7b5eed" stroke-linecap="round" stroke-linejoin="round" stroke-width="8"/>
      <path id="Path_186" data-name="Path 186" d="M34.157,11.144c-.2,19.473-13.589,34.9-33.059,36.67" transform="translate(-1.046 18.818)" fill="none" stroke="#7b5eed" stroke-linecap="round" stroke-linejoin="round" stroke-width="8"/>
    </g>
  </g>
</svg>
